This is my own rip, just in time for Christmas.

The song "Silver Bells" was written for this movie.

General
Unique ID                        : 216277637990647710647847792348134880280 (0xA2B58ED48CC1F15D9DFB38C7EE5BB418)
Format                           : Matroska
Format version                   : Version 2
File size                        : 3.88 GiB
Duration                         : 1h 31mn
Overall bit rate mode            : Variable
Overall bit rate                 : 6 078 Kbps
Encoded date                     : UTC 2012-12-24 16:34:25
Writing application              : mkvmerge v5.8.0 ('No Sleep / Pillow') built on Sep  2 2012 15:37:04
Writing library                  : libebml v1.2.3 + libmatroska v1.3.0

Video
ID                               : 1
Format                           : AVC
Format/Info                      : Advanced Video Codec
Format profile                   : High@L4.1
Format settings, CABAC           : Yes
Format settings, ReFrames        : 4 frames
Codec ID                         : V_MPEG4/ISO/AVC
Duration                         : 1h 31mn
Bit rate mode                    : Variable
Bit rate                         : 5 509 Kbps
Maximum bit rate                 : 20.5 Mbps
Width                            : 1 428 pixels
Height                           : 1 060 pixels
Display aspect ratio             : 4:3
Frame rate                       : 23.976 fps
Color space                      : YUV
Chroma subsampling               : 4:2:0
Bit depth                        : 8 bits
Scan type                        : Progressive
Bits/(Pixel*Frame)               : 0.152
Stream size                      : 3.52 GiB (91%)
Writing library                  : x264 core 129 r2230 1cffe9f
Language                         : English
Default                          : Yes
Forced                           : No

Audio
ID                               : 2
Format                           : AC-3
Format/Info                      : Audio Coding 3
Mode extension                   : CM (complete main)
Codec ID                         : A_AC3
Duration                         : 1h 31mn
Bit rate mode                    : Constant
Bit rate                         : 448 Kbps
Channel(s)                       : 6 channels
Channel positions                : Front: L C R, Side: L R, LFE
Sampling rate                    : 48.0 KHz
Bit depth                        : 16 bits
Compression mode                 : Lossy
Stream size                      : 293 MiB (7%)
Language                         : English
Default                          : Yes
Forced                           : No

Menu
00:00:00.000                     : Opening Titles
00:01:28.255                     : Betting Tips
00:14:28.034                     : Nellie Thursday
00:25:25.232                     : Save a Life
00:36:25.809                     : The Idea
00:49:38.726                     : Santa Brigade
00:57:45.128                     : Found Out
01:09:07.852                     : Another Old Doll
01:24:47.271                     : Payback
01:30:56.409                     : End Credits

